<svg xmlns="http://www.w3.org/2000/svg" viewBox="0 0 24 24">
  <circle cx="12" cy="12" r="11" fill="#006241"/>
  <circle cx="12" cy="12" r="8.3" fill="none" stroke="#fff" stroke-width="1.1"/>
  <path fill="#fff" d="m12 4.3 1.05 1.2 1.6-.45-.35 1.55 1.35.85-1.35.85.35 1.55-1.6-.45L12 10.65l-1.05-1.2-1.6.45.35-1.55-1.35-.85 1.35-.85-.35-1.55 1.6.45L12 4.3z"/>
  <path fill="#fff" d="M9 10.15c.75-.5 1.7-.75 3-.75s2.25.25 3 .75c.35 1.05.25 2.05-.35 3.05-.4.65-.8 1.2-1.2 1.7.45.6.7 1.25.75 1.95-.55-.3-1.1-.6-1.65-.85-.35.35-.7.6-1.05.6s-.7-.25-1.05-.6c-.55.25-1.1.55-1.65.85.05-.7.3-1.35.75-1.95-.4-.5-.8-1.05-1.2-1.7-.6-1-.7-2-.35-3.05zm2 1.35c-.4 0-.7.25-.7.6s.3.6.7.6.7-.25.7-.6-.3-.6-.7-.6zm2 0c-.4 0-.7.25-.7.6s.3.6.7.6.7-.25.7-.6-.3-.6-.7-.6zm-1 1.4-.7.85h1.4L12 12.9zm-1.1 1.65c.25.55.6.85 1.1.85s.85-.3 1.1-.85c-.75.3-1.45.3-2.2 0z"/>
  <path fill="none" stroke="#fff" stroke-width="1.15" stroke-linecap="round" d="M8.25 9.55c-1.25.95-2 2.2-2.2 3.75m1.2 1.3c-.75.25-1.35.75-1.75 1.45m10.25-6.5c1.25.95 2 2.2 2.2 3.75m-1.2 1.3c.75.25 1.35.75 1.75 1.45M8.6 17.2c.9.1 1.6.45 2.1 1.05m4.7-1.05c-.9.1-1.6.45-2.1 1.05"/>
</svg>
